<svg width="42" height="41" viewBox="0 0 42 41" fill="none" xmlns="http://www.w3.org/2000/svg">
<path d="M20.5064 0.259277C9.17661 0.259277 2.993e-06 9.43588 2.993e-06 20.7657C-0.00232288 25.0705 1.35099 29.2668 3.86795 32.7592C6.38491 36.2516 9.93769 38.8627 14.0223 40.2221C15.0476 40.4005 15.4311 39.7853 15.4311 39.246C15.4311 38.76 15.4044 37.1461 15.4044 35.4277C10.2532 36.3772 8.92028 34.1727 8.51015 33.0182C8.27843 32.4276 7.27977 30.6087 6.40825 30.1207C5.69052 29.7372 4.6652 28.7877 6.38159 28.7631C7.99749 28.7365 9.14995 30.2499 9.53547 30.865C11.381 33.9656 14.3299 33.0941 15.5069 32.5568C15.6874 31.2239 16.2246 30.3278 16.8152 29.8151C12.2526 29.3025 7.48483 27.5328 7.48483 19.6891C7.48483 17.458 8.27843 15.6145 9.58673 14.177C9.38167 13.6643 8.66395 11.5624 9.7918 8.74277C9.7918 8.74277 11.5082 8.2055 15.4311 10.8467C17.1004 10.3834 18.8252 10.1502 20.5576 10.1536C22.3007 10.1536 24.0437 10.3833 25.6842 10.8447C29.6051 8.17884 31.3235 8.74482 31.3235 8.74482C32.4513 11.5644 31.7336 13.6663 31.5286 14.179C32.8348 15.6145 33.6305 17.4334 33.6305 19.6891C33.6305 27.5594 28.8381 29.3025 24.2755 29.8151C25.0178 30.4549 25.6596 31.6853 25.6596 33.6088C25.6596 36.3505 25.633 38.5549 25.633 39.2481C25.633 39.7853 26.0185 40.4251 27.0438 40.2201C31.1144 38.8457 34.6515 36.2295 37.1574 32.7396C39.6632 29.2498 41.0116 25.062 41.0128 20.7657C41.0128 9.43588 31.8362 0.259277 20.5064 0.259277Z" fill="white"/>
</svg>
